Coordinates
version=1
nRows=11
nColumns=40
inDegrees=yes

Units are S.I. units (second, meters, Newtons, ...)
Angles are in degrees.

endheader
time	pelvis_tilt	pelvis_list	pelvis_rotation	pelvis_tx	pelvis_ty	pelvis_tz	hip_flexion_r	hip_adduction_r	hip_rotation_r	knee_angle_r	knee_angle_r_beta	ankle_angle_r	subtalar_angle_r	mtp_angle_r	hip_flexion_l	hip_adduction_l	hip_rotation_l	knee_angle_l	knee_angle_l_beta	ankle_angle_l	subtalar_angle_l	mtp_angle_l	lumbar_extension	lumbar_bending	lumbar_rotation	arm_flex_r	arm_add_r	arm_rot_r	elbow_flex_r	pro_sup_r	wrist_flex_r	wrist_dev_r	arm_flex_l	arm_add_l	arm_rot_l	elbow_flex_l	pro_sup_l	wrist_flex_l	wrist_dev_l
     11.76664286	     -6.43373353	     -6.29261857	      3.67081659	      1.05848960	      0.90567627	      0.49428289	     -5.88748778	      5.91451286	    -18.97308194	      6.36849699	      6.36849699	     19.09884303	      9.11884667	     -3.04090218	     36.19190274	     -8.46888689	     -4.62617047	     19.70531715	     19.70531715	      2.22058304	     -9.59186222	      7.21369953	     -6.09830526	      7.25201396	      3.94397066	     48.82678973	    -15.29698429	     -5.55530278	     80.65487967	     44.71191343	      0.00000000	      0.00000000	    -20.86421099	     -5.98596189	      4.96597717	     22.05987147	     44.98073618	      0.00000000	      0.00000000
     11.77828571	     -6.61474448	     -6.03396147	      3.46940881	      1.05992393	      0.90460835	      0.49196596	     -6.03409981	      5.29042473	    -18.75505260	      7.24582335	      7.24582335	     19.54605003	      8.87300906	     -2.93877532	     35.99075998	     -8.04526211	     -4.41080829	     20.39534651	     20.39534651	      0.94080324	    -10.92376725	      6.38883277	     -5.82563065	      7.01045856	      3.65455712	     48.95539307	    -14.78693545	     -5.77698597	     82.99911878	     44.65699961	      0.00000000	      0.00000000	    -21.34639053	     -5.82008344	      5.31741909	     21.92150134	     44.91330127	      0.00000000	      0.00000000
     11.78992857	     -6.70585632	     -5.73937022	      3.30845834	      1.06144638	      0.90389541	      0.48940345	     -6.25682795	      4.60843120	    -18.57299327	      8.16365500	      8.16365500	     19.92064735	      8.64835475	     -2.93174939	     35.76785926	     -7.60183840	     -4.11080391	     21.28233547	     21.28233547	     -0.01634860	    -12.17188560	      5.66416185	     -5.64979114	      6.76266639	      3.50815665	     48.82239876	    -14.48873039	     -6.07040803	     85.32333568	     44.60361461	      0.00000000	      0.00000000	    -21.54624112	     -5.69545217	      5.62352584	     21.82016715	     44.86026946	      0.00000000	      0.00000000
     11.80157143	     -6.74019156	     -5.39261577	      3.16592921	      1.06311170	      0.90365299	      0.48664447	     -6.52603104	      3.84057530	    -18.48774464	      9.11568288	      9.11568288	     20.18581597	      8.56388748	     -2.72812641	     35.34930271	     -7.08357852	     -3.75010816	     21.92810778	     21.92810778	     -1.37095311	    -13.73491062	      3.62504654	     -5.55604458	      6.47861894	      4.34314191	     47.52161670	    -15.27055124	     -7.23359268	     89.35010858	     44.79946098	      0.00000000	      0.00000000	    -21.26610332	     -6.51500361	     11.23534420	     22.08502701	     44.13563135	      0.00000000	      0.00000000
     11.81321429	     -6.77789040	     -5.04931146	      3.07058865	      1.06459063	      0.90368195	      0.48362787	     -6.62918198	      3.01326827	    -18.35156399	     10.32760216	     10.32760216	     20.24436737	      8.26148586	     -3.08854316	     35.17653739	     -6.59756356	     -3.43610401	     23.05852227	     23.05852227	     -1.32355272	    -14.59980108	      3.80434716	     -5.44448855	      6.22604667	      3.87293918	     47.13839804	    -14.77266088	     -7.29217168	     91.11467667	     44.75257834	      0.00000000	      0.00000000	    -21.22006593	     -6.30623459	     11.31520551	     21.96591028	     44.14937681	      0.00000000	      0.00000000
     11.82485714	     -6.76773972	     -4.66210100	      3.01114996	      1.06611497	      0.90421611	      0.48031457	     -6.74829330	      2.09328138	    -18.36159320	     11.57139100	     11.57139100	     19.89912267	      8.06749269	     -4.25249149	     34.93074413	     -6.01508619	     -3.05688529	     24.19824069	     24.19824069	     -0.51828987	    -15.34416474	      5.18569991	     -5.44284254	      5.95901038	      4.39949334	     45.58339328	    -15.39057146	     -8.25988902	     94.62870162	     44.70255667	      0.00000000	      0.00000000	    -20.34762773	     -6.32761320	     11.51777374	     21.59183210	     44.22279297	      0.00000000	      0.00000000
     11.83650000	     -6.60976495	     -4.38254137	      2.96056678	      1.06773599	      0.90521823	      0.47696987	     -6.99216789	      1.29204956	    -18.21119100	     12.87363017	     12.87363017	     19.64890160	      7.82085060	     -4.62702017	     34.44606499	     -5.59218092	     -2.83005671	     25.16591607	     25.16591607	      0.07856861	    -15.87809436	      5.12446194	     -5.49251425	      5.80569326	      3.92216294	     44.88207862	    -15.06616429	     -8.23851090	     95.36952925	     44.68014233	      0.00000000	      0.00000000	    -19.99626010	     -6.19292334	     11.58593288	     21.58255958	     44.22866302	      0.00000000	      0.00000000
     11.84814286	     -6.56969783	     -4.04989294	      2.93061941	      1.06912758	      0.90637479	      0.47327838	     -6.80047481	      0.28287348	    -18.15132406	     14.73645627	     14.73645627	     19.28036618	      7.48072469	     -5.46124258	     33.98730808	     -5.05333480	     -2.65111701	     25.92732343	     25.92732343	      0.88163445	    -16.39668531	      5.41550645	     -5.46089370	      5.72492072	      3.54380108	     43.76503366	    -14.86895187	     -8.33524188	     96.66581796	     44.64411676	      0.00000000	      0.00000000	    -19.39248081	     -6.02832272	     11.63987950	     21.64685785	     44.24568040	      0.00000000	      0.00000000
     11.85978571	     -6.63405499	     -3.72400241	      2.88276032	      1.07029349	      0.90777308	      0.46957956	     -6.46638282	     -0.72946740	    -18.03920674	     16.42481064	     16.42481064	     17.29200287	      6.72445571	    -10.31636583	     33.67532462	     -4.48706844	     -2.39218912	     26.79580420	     26.79580420	      3.08496411	    -16.39833831	      9.07944461	     -5.41695041	      5.58246380	      4.56806157	     41.14071029	    -15.88905386	    -10.07189547	    100.34608863	     44.63634487	      0.00000000	      0.00000000	    -17.64436212	     -6.08629727	     12.04558405	     20.89952044	     44.33684197	      0.00000000	      0.00000000
     11.87142857	     -6.29247661	     -3.69103550	      2.96803197	      1.07193737	      0.90999597	      0.46580004	     -6.71000712	     -1.33600135	    -17.95902711	     17.95604453	     17.95604453	     16.42107756	      6.49596400	    -10.54938410	     32.69658844	     -4.20980405	     -2.13619943	     27.15479960	     27.15479960	      3.90138517	    -16.61809264	      8.82992864	     -5.62983114	      5.83736045	      4.01384561	     39.73843340	    -15.65930821	     -9.95533305	    100.23933683	     44.63229698	      0.00000000	      0.00000000	    -16.88992416	     -5.84583002	     12.07226998	     21.21780282	     44.34984239	      0.00000000	      0.00000000
     11.88307143	     -6.45942052	     -3.21817595	      2.78459149	      1.07287962	      0.91143147	      0.46207103	     -5.45836574	     -2.82189280	    -17.61996123	     21.24742459	     21.24742459	     15.43524195	      5.69155514	    -12.39474291	     32.06762021	     -3.57048824	     -2.39460478	     27.21378111	     27.21378111	      4.73350352	    -16.84786204	      9.06885962	     -5.38926429	      5.53180971	      3.93961023	     37.97671321	    -15.80286019	    -10.12201824	    100.73192745	     44.62328127	      0.00000000	      0.00000000	    -16.06166357	     -5.91108947	     11.97053097	     21.72423171	     44.39844170	      0.00000000	      0.00000000
